<svg
                                            version="1.1"
                                            id="Layer_1"
                                            xmlns="http://www.w3.org/2000/svg"
                                            xmlns:xlink="http://www.w3.org/1999/xlink"
                                            x="0px"
                                            y="0px"
                                            viewBox="0 0 36 24"
                                            xml:space="preserve"
                                        >
                                            <linearGradient
                                                id="SVGID_1_"
                                                gradientUnits="userSpaceOnUse"
                                                x1="18"
                                                y1="54.0664"
                                                x2="18"
                                                y2="-16.6725"
                                                gradientTransform="matrix(1 0 0 -1 0 26)"
                                            >
                                                <stop offset="0" stop-color="#626364"></stop>
                                                <stop offset="1" stop-color="#414447"></stop>
                                            </linearGradient>
                                            <path
                                                class="sq-unknown-card-bg"
                                                fill="url(#SVGID_1_)"
                                                d="M4,0h28c2.2,0,4,1.8,4,4v16c0,2.2-1.8,4-4,4H4c-2.2,0-4-1.8-4-4V4C0,1.8,1.8,0,4,0z"
                                            ></path>
                                            <rect y="4" fill="#343434" width="36" height="5"></rect>
                                            <circle id="shadow" opacity="0.15" cx="24" cy="12.5" r="8.5"></circle>
                                            <rect x="4" y="11" opacity="0.3036" fill="#FFFFFF" width="24" height="3"></rect>
                                            <path fill="#FFFFFF" d="M24,20c4.4,0,8-3.6,8-8c0-4.4-3.6-8-8-8s-8,3.6-8,8C16,16.4,19.6,20,24,20z"></path>
                                            <path fill="#343434" d="M27,13c0.6,0,1-0.4,1-1s-0.4-1-1-1s-1,0.4-1,1S26.4,13,27,13z"></path>
                                            <path fill="#343434" d="M24,13c0.6,0,1-0.4,1-1s-0.4-1-1-1s-1,0.4-1,1S23.4,13,24,13z"></path>
                                            <path fill="#343434" d="M21,13c0.6,0,1-0.4,1-1s-0.4-1-1-1s-1,0.4-1,1S20.4,13,21,13z"></path>
                                        </svg>