<svg
                                            version="1.1"
                                            id="Layer_1"
                                            xmlns="http://www.w3.org/2000/svg"
                                            xmlns:xlink="http://www.w3.org/1999/xlink"
                                            x="0px"
                                            y="0px"
                                            viewBox="0 0 36 24"
                                            xml:space="preserve"
                                        >
                                            <linearGradient
                                                id="SVGID_1_"
                                                gradientUnits="userSpaceOnUse"
                                                x1="18"
                                                y1="54.0664"
                                                x2="18"
                                                y2="-16.6725"
                                                gradientTransform="matrix(1 0 0 -1 0 26)"
                                            >
                                                <stop offset="0" stop-color="#626364"></stop>
                                                <stop offset="1" stop-color="#414447"></stop>
                                            </linearGradient>
                                            <path
                                                fill="url(#SVGID_1_)"
                                                class="sq-unknown-card-bg"
                                                d="M4,0h28c2.2,0,4,1.8,4,4v16c0,2.2-1.8,4-4,4H4c-2.2,0-4-1.8-4-4V4C0,1.8,1.8,0,4,0z"
                                            ></path>
                                            <path
                                                fill="#FFFFFF"
                                                fill-opacity="0.3"
                                                d="M7,12h22c0.6,0,1,0.4,1,1l0,0c0,0.6-0.4,1-1,1H7c-0.6,0-1-0.4-1-1l0,0C6,12.4,6.4,12,7,12z"
                                            ></path>
                                            <path
                                                fill="#FFFFFF"
                                                fill-opacity="0.3"
                                                d="M6.5,17h6c0.3,0,0.5,0.2,0.5,0.5l0,0c0,0.3-0.2,0.5-0.5,0.5h-6C6.2,18,6,17.8,6,17.5l0,0C6,17.2,6.2,17,6.5,17z"
                                            ></path>
                                        </svg>